<svg width="599" height="82" viewBox="0 0 599 82" fill="none" xmlns="http://www.w3.org/2000/svg">
<path d="M0.6797 81.5V0.299994H49.3997V8.41999H57.5197V73.38H49.3997V81.5H0.6797ZM33.1597 65.26V16.54H25.0397V65.26H33.1597ZM93.6616 49.02V65.26H126.142V81.5H69.3016V0.299994H126.142V16.54H93.6616V32.78H118.022V49.02H93.6616ZM162.283 49.02V65.26H194.763V81.5H137.923V0.299994H194.763V16.54H162.283V32.78H186.643V49.02H162.283ZM206.545 81.5V0.299994H263.385V49.02H230.905V81.5H206.545ZM239.025 32.78V16.54H230.905V32.78H239.025ZM323.887 65.26V81.5H275.167V0.299994H323.887V16.54H299.527V65.26H323.887ZM335.633 81.5V0.299994H392.473V32.78H384.353V40.9H392.473V81.5H368.113V49.02H359.993V81.5H335.633ZM368.113 32.78V16.54H359.993V32.78H368.113ZM404.255 81.5V0.299994H461.095V81.5H436.735V49.02H428.615V81.5H404.255ZM436.735 32.78V16.54H428.615V32.78H436.735ZM497.237 49.02V81.5H472.877V0.299994H529.717V16.54H497.237V32.78H521.597V49.02H497.237ZM582.098 16.54V81.5H557.738V16.54H541.498V0.299994H598.338V16.54H582.098Z" fill="white"/>
</svg>
